<?xml version="1.0" encoding="utf-8"?>
<!-- Generator: Adobe Illustrator 16.0.0, SVG Export Plug-In . SVG Version: 6.00 Build 0)  -->
<!DOCTYPE svg PUBLIC "-//W3C//DTD SVG 1.1//EN" "http://www.w3.org/Graphics/SVG/1.1/DTD/svg11.dtd">
<svg version="1.1" id="圖層_1" xmlns="http://www.w3.org/2000/svg" xmlns:xlink="http://www.w3.org/1999/xlink" x="0px" y="0px"
	 width="293px" height="243px" viewBox="206.5 0 293 243" enable-background="new 206.5 0 293 243" xml:space="preserve">
<rect x="-384.347" y="-361.935" fill="none" width="1907.788" height="1474.201"/>
<g>
	<rect x="177.873" y="-23.512" fill="none" width="353.615" height="290.024"/>
	<path d="M265.313,230.137v-14.453c0-5.539-3.372-9.152-9.153-9.152c-2.891,0-6.021,0.964-8.189,4.097
		c-1.687-2.649-4.096-4.097-7.709-4.097c-2.408,0-4.817,0.724-6.744,3.373v-2.891h-5.059v23.123h5.059v-12.766
		c0-4.096,2.168-6.021,5.54-6.021s5.059,2.168,5.059,6.021v12.766h5.059v-12.766c0-4.096,2.409-6.021,5.54-6.021
		c3.373,0,5.059,2.168,5.059,6.021v12.766H265.313z M340.228,207.014h-8.189v-6.986h-5.059v6.986h-4.576v4.576h4.576v10.598
		c0,5.301,2.168,8.433,7.948,8.433c2.168,0,4.577-0.724,6.264-1.687l-1.445-4.336c-1.445,0.963-3.131,1.203-4.335,1.203
		c-2.409,0-3.373-1.445-3.373-3.854V211.59h8.189V207.014L340.228,207.014z M383.104,206.531c-2.892,0-4.817,1.445-6.022,3.373
		v-2.891h-5.059v23.123h5.059v-13.009c0-3.854,1.687-6.021,4.818-6.021c0.963,0,2.167,0.242,3.131,0.481l1.444-4.817
		C385.513,206.531,384.067,206.531,383.104,206.531z M318.308,208.939c-2.408-1.687-5.78-2.408-9.395-2.408
		c-5.781,0-9.636,2.891-9.636,7.467c0,3.854,2.891,6.021,7.948,6.744l2.409,0.242c2.649,0.479,4.096,1.203,4.096,2.408
		c0,1.686-1.928,2.891-5.301,2.891c-3.372,0-6.021-1.205-7.708-2.408l-2.408,3.854c2.649,1.928,6.264,2.892,9.877,2.892
		c6.743,0,10.599-3.132,10.599-7.468c0-4.096-3.132-6.264-7.949-6.985l-2.409-0.239c-2.168-0.242-3.854-0.724-3.854-2.168
		c0-1.688,1.686-2.65,4.336-2.65c2.891,0,5.78,1.205,7.226,1.928L318.308,208.939L318.308,208.939z M452.72,206.531
		c-2.891,0-4.817,1.445-6.021,3.373v-2.891h-5.06v23.123h5.06v-13.009c0-3.854,1.687-6.021,4.816-6.021
		c0.964,0,2.168,0.242,3.133,0.481l1.444-4.817C455.128,206.531,453.683,206.531,452.72,206.531z M388.163,218.574
		c0,6.986,4.816,12.045,12.285,12.045c3.372,0,5.781-0.723,8.188-2.65l-2.407-4.094c-1.929,1.445-3.854,2.168-6.022,2.168
		c-4.095,0-6.985-2.891-6.985-7.469c0-4.336,2.892-7.227,6.985-7.467c2.168,0,4.095,0.723,6.022,2.168l2.407-4.096
		c-2.407-1.927-4.816-2.648-8.188-2.648C392.98,206.531,388.163,211.59,388.163,218.574L388.163,218.574z M434.895,218.574v-11.561
		h-5.059v2.891c-1.687-2.168-4.096-3.373-7.227-3.373c-6.504,0-11.563,5.059-11.563,12.043c0,6.986,5.06,12.045,11.563,12.045
		c3.372,0,5.78-1.205,7.227-3.373v2.891h5.059v-11.561V218.574z M416.347,218.574c0-4.094,2.649-7.467,6.985-7.467
		c4.095,0,6.985,3.131,6.985,7.467c0,4.096-2.892,7.469-6.985,7.469C418.996,225.801,416.347,222.67,416.347,218.574z
		 M355.885,206.531c-6.745,0-11.563,4.818-11.563,12.043c0,7.227,4.816,12.045,11.804,12.045c3.372,0,6.744-0.963,9.395-3.131
		l-2.408-3.613c-1.928,1.445-4.336,2.408-6.745,2.408c-3.131,0-6.263-1.445-6.985-5.541h17.104v-1.926
		C366.725,211.35,362.389,206.531,355.885,206.531L355.885,206.531z M355.885,210.867c3.132,0,5.3,1.926,5.781,5.539h-12.044
		C350.104,213.275,352.271,210.867,355.885,210.867z M481.385,218.574v-20.715h-5.059v12.045c-1.688-2.168-4.096-3.373-7.228-3.373
		c-6.504,0-11.563,5.059-11.563,12.043c0,6.986,5.059,12.045,11.563,12.045c3.372,0,5.781-1.205,7.228-3.373v2.891h5.059V218.574
		L481.385,218.574z M462.837,218.574c0-4.094,2.649-7.467,6.985-7.467c4.095,0,6.984,3.131,6.984,7.467
		c0,4.096-2.891,7.469-6.984,7.469C465.486,225.801,462.837,222.67,462.837,218.574z M293.737,218.574v-11.561h-5.059v2.891
		c-1.687-2.168-4.096-3.373-7.227-3.373c-6.504,0-11.563,5.059-11.563,12.043c0,6.986,5.059,12.045,11.563,12.045
		c3.372,0,5.781-1.205,7.227-3.373v2.891h5.059v-11.561V218.574z M274.948,218.574c0-4.094,2.649-7.467,6.985-7.467
		c4.095,0,6.985,3.131,6.985,7.467c0,4.096-2.891,7.469-6.985,7.469C277.598,225.801,274.948,222.67,274.948,218.574z"/>
	<rect x="316.621" y="31.41" fill="#FF5F00" width="75.878" height="136.339"/>
	<path fill="#EB001B" d="M321.438,99.579c0-27.701,13.008-52.271,33.001-68.169c-14.694-11.563-33.241-18.549-53.477-18.549
		c-47.936,0-86.718,38.782-86.718,86.718c0,47.937,38.782,86.718,86.718,86.718c20.234,0,38.781-6.986,53.477-18.548
		C334.446,152.092,321.438,127.281,321.438,99.579z"/>
	<path fill="#F79E1B" d="M494.874,99.579c0,47.937-38.782,86.718-86.718,86.718c-20.234,0-38.782-6.986-53.477-18.548
		c20.233-15.897,33.001-40.468,33.001-68.17c0-27.701-13.008-52.271-33.001-68.169c14.693-11.563,33.241-18.549,53.477-18.549
		C456.092,12.861,494.874,51.885,494.874,99.579z"/>
</g>
</svg>
