<?xml version="1.0" encoding="utf-8"?>
<!-- Generator: Adobe Illustrator 16.0.0, SVG Export Plug-In . SVG Version: 6.00 Build 0)  -->
<!DOCTYPE svg PUBLIC "-//W3C//DTD SVG 1.1//EN" "http://www.w3.org/Graphics/SVG/1.1/DTD/svg11.dtd">
<svg version="1.1" id="圖層_1" xmlns="http://www.w3.org/2000/svg" xmlns:xlink="http://www.w3.org/1999/xlink" x="0px" y="0px"
	 width="2152px" height="960px" viewBox="0 -76.577 2152 960" enable-background="new 0 -76.577 2152 960" xml:space="preserve">
<g>
	<path fill="#2566AF" d="M940.104,716.833H768.424L875.723,57.42h171.697L940.104,716.833z M623.999,57.42L460.327,510.97
		l-19.367-97.668l0.018,0.035L383.21,116.792c0,0-6.985-59.372-81.438-59.372H31.189l-3.175,11.165
		c0,0,82.744,17.216,179.582,75.371L356.75,716.851h178.877L808.766,57.42H623.999L623.999,57.42z M1974.347,716.833h157.639
		L1994.544,57.402h-138.007c-63.729,0-79.252,49.143-79.252,49.143l-256.047,610.289h178.965l35.789-97.948h218.247
		L1974.347,716.833z M1785.434,483.574l90.206-246.769l50.746,246.769H1785.434z M1534.661,215.993l24.5-141.604
		c0,0-75.6-28.752-154.411-28.752c-85.195,0-287.514,37.235-287.514,218.299c0,170.356,237.454,172.474,237.454,261.957
		c0,89.482-212.989,73.447-283.28,17.021l-25.523,148.062c0,0,76.658,37.236,193.781,37.236
		c117.157,0,293.899-60.66,293.899-225.763c0-171.449-239.592-187.412-239.592-261.954
		C1293.996,165.933,1461.195,175.511,1534.661,215.993L1534.661,215.993z"/>
</g>
<path fill="#E6A540" d="M440.978,413.322L383.21,116.775c0,0-6.985-59.372-81.438-59.372H31.189l-3.175,11.165
	c0,0,130.052,26.951,254.792,127.936C402.083,293.023,440.978,413.322,440.978,413.322z"/>
</svg>
